<svg xmlns="http://www.w3.org/2000/svg" width="1440" height="900"><path d="M741,370L850,360L749,266Z" fill="#89cfc1" stroke="#89cfc1" stroke-width="1.51"/><path d="M850,360L853,236L749,266Z" fill="#8dcfc0" stroke="#8dcfc0" stroke-width="1.51"/><path d="M853,236L711,150L749,266Z" fill="#98d5c2" stroke="#98d5c2" stroke-width="1.51"/><path d="M749,266L603,378L741,370Z" fill="#8ed3bf" stroke="#8ed3bf" stroke-width="1.51"/><path d="M563,291L603,378L749,266Z" fill="#97d6bb" stroke="#97d6bb" stroke-width="1.51"/><path d="M850,360L1008,276L853,236Z" fill="#86cbc2" stroke="#86cbc2" stroke-width="1.51"/><path d="M863,544L978,416L850,360Z" fill="#6fc3c9" stroke="#6fc3c9" stroke-width="1.51"/><path d="M863,544L850,360L741,370Z" fill="#78c8c6" stroke="#78c8c6" stroke-width="1.51"/><path d="M978,416L1008,276L850,360Z" fill="#7ac5c7" stroke="#7ac5c7" stroke-width="1.51"/><path d="M853,236L850,97L711,150Z" fill="#9cd5c6" stroke="#9cd5c6" stroke-width="1.51"/><path d="M711,150L563,291L749,266Z" fill="#9dd8be" stroke="#9dd8be" stroke-width="1.51"/><path d="M1017,119L850,97L853,236Z" fill="#98d1ca" stroke="#98d1ca" stroke-width="1.51"/><path d="M571,489L742,549L741,370Z" fill="#7dcbc4" stroke="#7dcbc4" stroke-width="1.51"/><path d="M742,549L863,544L741,370Z" fill="#72c6c8" stroke="#72c6c8" stroke-width="1.51"/><path d="M603,378L571,489L741,370Z" fill="#8ad1c0" stroke="#8ad1c0" stroke-width="1.51"/><path d="M429,367L571,489L603,378Z" fill="#93d4bd" stroke="#93d4bd" stroke-width="1.51"/><path d="M711,150L598,105L563,291Z" fill="#a8dcbf" stroke="#a8dcbf" stroke-width="1.51"/><path d="M728,14L598,105L711,150Z" fill="#acdec6" stroke="#acdec6" stroke-width="1.51"/><path d="M742,549L842,609L863,544Z" fill="#65becd" stroke="#65becd" stroke-width="1.51"/><path d="M863,544L987,543L978,416Z" fill="#62bcce" stroke="#62bcce" stroke-width="1.51"/><path d="M722,659L842,609L742,549Z" fill="#64bdcd" stroke="#64bdcd" stroke-width="1.51"/><path d="M842,609L987,543L863,544Z" fill="#5dbacf" stroke="#5dbacf" stroke-width="1.51"/><path d="M978,416L1079,399L1008,276Z" fill="#74bfc5" stroke="#74bfc5" stroke-width="1.51"/><path d="M1091,492L1079,399L978,416Z" fill="#66b9c8" stroke="#66b9c8" stroke-width="1.51"/><path d="M1008,276L1017,119L853,236Z" fill="#8ccbc9" stroke="#8ccbc9" stroke-width="1.51"/><path d="M1126,290L1017,119L1008,276Z" fill="#85c3c4" stroke="#85c3c4" stroke-width="1.51"/><path d="M850,97L728,14L711,150Z" fill="#a6dac9" stroke="#a6dac9" stroke-width="1.51"/><path d="M862,6L728,14L850,97Z" fill="#a6d8ce" stroke="#a6d8ce" stroke-width="1.51"/><path d="M1017,119L862,6L850,97Z" fill="#9dd3ce" stroke="#9dd3ce" stroke-width="1.51"/><path d="M1079,399L1126,290L1008,276Z" fill="#78bcc2" stroke="#78bcc2" stroke-width="1.51"/><path d="M593,629L722,659L742,549Z" fill="#6bc0cb" stroke="#6bc0cb" stroke-width="1.51"/><path d="M1079,399L1240,363L1126,290Z" fill="#70b5c0" stroke="#70b5c0" stroke-width="1.51"/><path d="M987,543L1091,492L978,416Z" fill="#5fb8cb" stroke="#5fb8cb" stroke-width="1.51"/><path d="M563,291L429,367L603,378Z" fill="#9cd8b9" stroke="#9cd8b9" stroke-width="1.51"/><path d="M598,105L458,218L563,291Z" fill="#acdfbb" stroke="#acdfbb" stroke-width="1.51"/><path d="M458,218L429,367L563,291Z" fill="#a7ddb5" stroke="#a7ddb5" stroke-width="1.51"/><path d="M571,489L593,629L742,549Z" fill="#78c7c7" stroke="#78c7c7" stroke-width="1.51"/><path d="M459,539L593,629L571,489Z" fill="#82cac4" stroke="#82cac4" stroke-width="1.51"/><path d="M1126,290L1118,107L1017,119Z" fill="#8bc2c5" stroke="#8bc2c5" stroke-width="1.51"/><path d="M1017,119L998,-21L862,6Z" fill="#9cd1d3" stroke="#9cd1d3" stroke-width="1.51"/><path d="M598,105L425,100L458,218Z" fill="#b7e3bd" stroke="#b7e3bd" stroke-width="1.51"/><path d="M728,14L576,-9L598,105Z" fill="#b3e1c8" stroke="#b3e1c8" stroke-width="1.51"/><path d="M704,-96L576,-9L728,14Z" fill="#b4e2cd" stroke="#b4e2cd" stroke-width="1.51"/><path d="M429,367L459,539L571,489Z" fill="#91d3be" stroke="#91d3be" stroke-width="1.51"/><path d="M1118,107L998,-21L1017,119Z" fill="#96c9cd" stroke="#96c9cd" stroke-width="1.51"/><path d="M862,6L704,-96L728,14Z" fill="#addcd1" stroke="#addcd1" stroke-width="1.51"/><path d="M987,543L1138,680L1091,492Z" fill="#4fadcd" stroke="#4fadcd" stroke-width="1.51"/><path d="M842,609L990,678L987,543Z" fill="#52b4d3" stroke="#52b4d3" stroke-width="1.51"/><path d="M884,760L990,678L842,609Z" fill="#4eadcd" stroke="#4eadcd" stroke-width="1.51"/><path d="M836,-170L704,-96L862,6Z" fill="#aeddd6" stroke="#aeddd6" stroke-width="1.51"/><path d="M466,12L425,100L598,105Z" fill="#bce5c1" stroke="#bce5c1" stroke-width="1.51"/><path d="M458,218L305,279L429,367Z" fill="#aee0b7" stroke="#aee0b7" stroke-width="1.51"/><path d="M722,659L743,762L842,609Z" fill="#5db5c9" stroke="#5db5c9" stroke-width="1.51"/><path d="M597,788L743,762L722,659Z" fill="#62b1c3" stroke="#62b1c3" stroke-width="1.51"/><path d="M597,788L722,659L593,629Z" fill="#6bb9c4" stroke="#6bb9c4" stroke-width="1.51"/><path d="M743,762L884,760L842,609Z" fill="#55aec9" stroke="#55aec9" stroke-width="1.51"/><path d="M576,-9L466,12L598,105Z" fill="#bae4c5" stroke="#bae4c5" stroke-width="1.51"/><path d="M454,-121L466,12L576,-9Z" fill="#c2e7c8" stroke="#c2e7c8" stroke-width="1.51"/><path d="M1126,290L1253,278L1118,107Z" fill="#80b9bf" stroke="#80b9bf" stroke-width="1.51"/><path d="M1091,492L1240,363L1079,399Z" fill="#64b2c3" stroke="#64b2c3" stroke-width="1.51"/><path d="M1243,541L1240,363L1091,492Z" fill="#59abc2" stroke="#59abc2" stroke-width="1.51"/><path d="M1240,363L1253,278L1126,290Z" fill="#73b2bb" stroke="#73b2bb" stroke-width="1.51"/><path d="M998,-21L993,-108L862,6Z" fill="#a2d3d7" stroke="#a2d3d7" stroke-width="1.51"/><path d="M1100,-115L993,-108L998,-21Z" fill="#a0ced7" stroke="#a0ced7" stroke-width="1.51"/><path d="M1147,-15L998,-21L1118,107Z" fill="#96c7ce" stroke="#96c7ce" stroke-width="1.51"/><path d="M990,678L1138,680L987,543Z" fill="#47aace" stroke="#47aace" stroke-width="1.51"/><path d="M884,760L986,768L990,678Z" fill="#43a4cb" stroke="#43a4cb" stroke-width="1.51"/><path d="M977,864L986,768L884,760Z" fill="#3f9dc7" stroke="#3f9dc7" stroke-width="1.51"/><path d="M317,132L458,218L425,100Z" fill="#bee5be" stroke="#bee5be" stroke-width="1.51"/><path d="M317,132L305,279L458,218Z" fill="#bae4bd" stroke="#bae4bd" stroke-width="1.51"/><path d="M429,367L358,551L459,539Z" fill="#94d3c0" stroke="#94d3c0" stroke-width="1.51"/><path d="M1253,278L1221,88L1118,107Z" fill="#87b9c1" stroke="#87b9c1" stroke-width="1.51"/><path d="M459,539L435,657L593,629Z" fill="#81c8c5" stroke="#81c8c5" stroke-width="1.51"/><path d="M358,551L435,657L459,539Z" fill="#8bccc5" stroke="#8bccc5" stroke-width="1.51"/><path d="M1221,88L1147,-15L1118,107Z" fill="#90bfc9" stroke="#90bfc9" stroke-width="1.51"/><path d="M299,375L358,551L429,367Z" fill="#9ed9c0" stroke="#9ed9c0" stroke-width="1.51"/><path d="M993,-108L836,-170L862,6Z" fill="#a9d8d9" stroke="#a9d8d9" stroke-width="1.51"/><path d="M704,-96L571,-145L576,-9Z" fill="#bce5cf" stroke="#bce5cf" stroke-width="1.51"/><path d="M305,279L299,375L429,367Z" fill="#acdebc" stroke="#acdebc" stroke-width="1.51"/><path d="M986,768L1138,680L990,678Z" fill="#40a1c9" stroke="#40a1c9" stroke-width="1.51"/><path d="M1138,680L1243,541L1091,492Z" fill="#49a6c9" stroke="#49a6c9" stroke-width="1.51"/><path d="M1240,363L1345,371L1253,278Z" fill="#6cabba" stroke="#6cabba" stroke-width="1.51"/><path d="M743,762L836,884L884,760Z" fill="#4fa3c3" stroke="#4fa3c3" stroke-width="1.51"/><path d="M431,739L597,788L593,629Z" fill="#74b8c0" stroke="#74b8c0" stroke-width="1.51"/><path d="M318,-25L317,132L425,100Z" fill="#c7e9c5" stroke="#c7e9c5" stroke-width="1.51"/><path d="M836,-170L571,-145L704,-96Z" fill="#b8e3d5" stroke="#b8e3d5" stroke-width="1.51"/><path d="M466,12L318,-25L425,100Z" fill="#c6e9c6" stroke="#c6e9c6" stroke-width="1.51"/><path d="M993,-108L1100,-115L836,-170Z" fill="#a6d4dd" stroke="#a6d4dd" stroke-width="1.51"/><path d="M1147,-15L1100,-115L998,-21Z" fill="#9bc9d4" stroke="#9bc9d4" stroke-width="1.51"/><path d="M1258,-121L1100,-115L1147,-15Z" fill="#99c3d2" stroke="#99c3d2" stroke-width="1.51"/><path d="M435,657L431,739L593,629Z" fill="#7dbfc1" stroke="#7dbfc1" stroke-width="1.51"/><path d="M358,551L353,634L435,657Z" fill="#8acac8" stroke="#8acac8" stroke-width="1.51"/><path d="M195,541L353,634L358,551Z" fill="#95d0c8" stroke="#95d0c8" stroke-width="1.51"/><path d="M353,634L431,739L435,657Z" fill="#84c1c3" stroke="#84c1c3" stroke-width="1.51"/><path d="M1221,88L1259,27L1147,-15Z" fill="#8fbcc9" stroke="#8fbcc9" stroke-width="1.51"/><path d="M1389,91L1259,27L1221,88Z" fill="#8bb5c4" stroke="#8bb5c4" stroke-width="1.51"/><path d="M1333,504L1345,371L1240,363Z" fill="#5fa5bd" stroke="#5fa5bd" stroke-width="1.51"/><path d="M1253,278L1394,226L1221,88Z" fill="#7fb0bc" stroke="#7fb0bc" stroke-width="1.51"/><path d="M1138,680L1267,608L1243,541Z" fill="#3e9ec8" stroke="#3e9ec8" stroke-width="1.51"/><path d="M1357,651L1267,608L1342,778Z" fill="#328fc0" stroke="#328fc0" stroke-width="1.51"/><path d="M1333,504L1240,363L1243,541Z" fill="#56a5c0" stroke="#56a5c0" stroke-width="1.51"/><path d="M571,-145L454,-121L576,-9Z" fill="#c3e8cd" stroke="#c3e8cd" stroke-width="1.51"/><path d="M725,923L836,884L743,762Z" fill="#529fbe" stroke="#529fbe" stroke-width="1.51"/><path d="M986,768L1116,800L1138,680Z" fill="#3899c5" stroke="#3899c5" stroke-width="1.51"/><path d="M725,923L743,762L597,788Z" fill="#5ca7be" stroke="#5ca7be" stroke-width="1.51"/><path d="M1267,608L1333,504L1243,541Z" fill="#489ec3" stroke="#489ec3" stroke-width="1.51"/><path d="M836,884L977,864L884,760Z" fill="#439bc3" stroke="#439bc3" stroke-width="1.51"/><path d="M977,864L1116,800L986,768Z" fill="#3896c4" stroke="#3896c4" stroke-width="1.51"/><path d="M299,375L219,417L358,551Z" fill="#a2dac3" stroke="#a2dac3" stroke-width="1.51"/><path d="M188,234L219,417L299,375Z" fill="#b3e1bf" stroke="#b3e1bf" stroke-width="1.51"/><path d="M188,234L299,375L305,279Z" fill="#b7e3bc" stroke="#b7e3bc" stroke-width="1.51"/><path d="M346,-111L318,-25L466,12Z" fill="#ccebcc" stroke="#ccebcc" stroke-width="1.51"/><path d="M317,132L188,234L305,279Z" fill="#c0e6bf" stroke="#c0e6bf" stroke-width="1.51"/><path d="M572,923L725,923L597,788Z" fill="#61a2b9" stroke="#61a2b9" stroke-width="1.51"/><path d="M977,999L1128,881L977,864Z" fill="#318abe" stroke="#318abe" stroke-width="1.51"/><path d="M171,159L188,234L317,132Z" fill="#c7e9c3" stroke="#c7e9c3" stroke-width="1.51"/><path d="M1345,371L1394,226L1253,278Z" fill="#72a9b6" stroke="#72a9b6" stroke-width="1.51"/><path d="M1477,265L1394,226L1345,371Z" fill="#70a3b3" stroke="#70a3b3" stroke-width="1.51"/><path d="M192,-30L171,159L317,132Z" fill="#cfecc8" stroke="#cfecc8" stroke-width="1.51"/><path d="M454,-121L346,-111L466,12Z" fill="#cbebcc" stroke="#cbebcc" stroke-width="1.51"/><path d="M95,-167L346,-111L454,-121Z" fill="#d9f0d4" stroke="#d9f0d4" stroke-width="1.51"/><path d="M219,417L195,541L358,551Z" fill="#a0d7c6" stroke="#a0d7c6" stroke-width="1.51"/><path d="M353,634L330,773L431,739Z" fill="#84bec2" stroke="#84bec2" stroke-width="1.51"/><path d="M92,409L195,541L219,417Z" fill="#a8dcc8" stroke="#a8dcc8" stroke-width="1.51"/><path d="M429,923L597,788L431,739Z" fill="#74aeb9" stroke="#74aeb9" stroke-width="1.51"/><path d="M429,923L572,923L597,788Z" fill="#6ca5b7" stroke="#6ca5b7" stroke-width="1.51"/><path d="M1259,27L1258,-121L1147,-15Z" fill="#93bdcd" stroke="#93bdcd" stroke-width="1.51"/><path d="M1394,226L1389,91L1221,88Z" fill="#85afbd" stroke="#85afbd" stroke-width="1.51"/><path d="M63,626L170,647L195,541Z" fill="#9bd1d0" stroke="#9bd1d0" stroke-width="1.51"/><path d="M192,-30L317,132L318,-25Z" fill="#cfedca" stroke="#cfedca" stroke-width="1.51"/><path d="M1100,-115L1258,-121L836,-170Z" fill="#a2cdd9" stroke="#a2cdd9" stroke-width="1.51"/><path d="M1358,-8L1258,-121L1259,27Z" fill="#91b7ca" stroke="#91b7ca" stroke-width="1.51"/><path d="M175,739L330,773L353,634Z" fill="#8ac0c5" stroke="#8ac0c5" stroke-width="1.51"/><path d="M977,864L1128,881L1116,800Z" fill="#328ec0" stroke="#328ec0" stroke-width="1.51"/><path d="M1242,798L1267,608L1138,680Z" fill="#3595c2" stroke="#3595c2" stroke-width="1.51"/><path d="M1267,608L1357,651L1333,504Z" fill="#3f98c4" stroke="#3f98c4" stroke-width="1.51"/><path d="M977,999L977,864L836,884Z" fill="#3b90c0" stroke="#3b90c0" stroke-width="1.51"/><path d="M1517,371L1477,265L1345,371Z" fill="#689eb4" stroke="#689eb4" stroke-width="1.51"/><path d="M1242,798L1138,680L1116,800Z" fill="#3190c1" stroke="#3190c1" stroke-width="1.51"/><path d="M1389,91L1358,-8L1259,27Z" fill="#8bb2c3" stroke="#8bb2c3" stroke-width="1.51"/><path d="M1211,894L1242,798L1116,800Z" fill="#2887bc" stroke="#2887bc" stroke-width="1.51"/><path d="M1394,226L1485,148L1389,91Z" fill="#80a8b9" stroke="#80a8b9" stroke-width="1.51"/><path d="M1389,91L1518,-24L1358,-8Z" fill="#89abc2" stroke="#89abc2" stroke-width="1.51"/><path d="M1517,371L1345,371L1333,504Z" fill="#5b9eb9" stroke="#5b9eb9" stroke-width="1.51"/><path d="M725,923L844,1012L836,884Z" fill="#4a94ba" stroke="#4a94ba" stroke-width="1.51"/><path d="M681,1060L844,1012L725,923Z" fill="#4e8eb1" stroke="#4e8eb1" stroke-width="1.51"/><path d="M213,-110L192,-30L318,-25Z" fill="#d7f0d1" stroke="#d7f0d1" stroke-width="1.51"/><path d="M1519,-123L1334,-122L1358,-8Z" fill="#90b0c9" stroke="#90b0c9" stroke-width="1.51"/><path d="M1358,-8L1334,-122L1258,-121Z" fill="#93b6cc" stroke="#93b6cc" stroke-width="1.51"/><path d="M1258,-121L1334,-122L836,-170Z" fill="#9ec6d6" stroke="#9ec6d6" stroke-width="1.51"/><path d="M92,409L219,417L188,234Z" fill="#b5e2c3" stroke="#b5e2c3" stroke-width="1.51"/><path d="M195,541L170,647L353,634Z" fill="#96cfcd" stroke="#96cfcd" stroke-width="1.51"/><path d="M572,923L592,1004L725,923Z" fill="#5e99b4" stroke="#5e99b4" stroke-width="1.51"/><path d="M353,890L429,923L431,739Z" fill="#79acb9" stroke="#79acb9" stroke-width="1.51"/><path d="M353,890L431,739L330,773Z" fill="#7eb3bd" stroke="#7eb3bd" stroke-width="1.51"/><path d="M844,1012L977,999L836,884Z" fill="#3f8db9" stroke="#3f8db9" stroke-width="1.51"/><path d="M1128,881L1211,894L1116,800Z" fill="#2a87bc" stroke="#2a87bc" stroke-width="1.51"/><path d="M79,220L92,409L188,234Z" fill="#bfe6c2" stroke="#bfe6c2" stroke-width="1.51"/><path d="M79,220L188,234L171,159Z" fill="#c7e9c5" stroke="#c7e9c5" stroke-width="1.51"/><path d="M1213,1026L1211,894L1128,881Z" fill="#217cb6" stroke="#217cb6" stroke-width="1.51"/><path d="M1242,798L1342,778L1267,608Z" fill="#2d8bbe" stroke="#2d8bbe" stroke-width="1.51"/><path d="M469,1027L592,1004L572,923Z" fill="#6697ad" stroke="#6697ad" stroke-width="1.51"/><path d="M1477,265L1485,148L1394,226Z" fill="#78a3b5" stroke="#78a3b5" stroke-width="1.51"/><path d="M1530,509L1517,371L1333,504Z" fill="#5196b8" stroke="#5196b8" stroke-width="1.51"/><path d="M1370,915L1342,778L1242,798Z" fill="#217db7" stroke="#217db7" stroke-width="1.51"/><path d="M174,868L353,890L330,773Z" fill="#82b0bd" stroke="#82b0bd" stroke-width="1.51"/><path d="M469,1027L681,1060L592,1004Z" fill="#6090a8" stroke="#6090a8" stroke-width="1.51"/><path d="M63,159L79,220L171,159Z" fill="#ccebc8" stroke="#ccebc8" stroke-width="1.51"/><path d="M38,29L63,159L171,159Z" fill="#d3eecc" stroke="#d3eecc" stroke-width="1.51"/><path d="M346,-111L213,-110L318,-25Z" fill="#d5efd1" stroke="#d5efd1" stroke-width="1.51"/><path d="M95,-167L213,-110L346,-111Z" fill="#ddf2d6" stroke="#ddf2d6" stroke-width="1.51"/><path d="M1477,265L1644,249L1485,148Z" fill="#749bad" stroke="#749bad" stroke-width="1.51"/><path d="M1467,631L1333,504L1357,651Z" fill="#3b93c2" stroke="#3b93c2" stroke-width="1.51"/><path d="M1342,778L1467,631L1357,651Z" fill="#2e89bd" stroke="#2e89bd" stroke-width="1.51"/><path d="M170,647L175,739L353,634Z" fill="#92c7c9" stroke="#92c7c9" stroke-width="1.51"/><path d="M63,626L175,739L170,647Z" fill="#96c9cd" stroke="#96c9cd" stroke-width="1.51"/><path d="M-20,486L59,535L92,409Z" fill="#acdccf" stroke="#acdccf" stroke-width="1.51"/><path d="M38,29L171,159L192,-30Z" fill="#d4eece" stroke="#d4eece" stroke-width="1.51"/><path d="M469,1027L572,923L429,923Z" fill="#6d9caf" stroke="#6d9caf" stroke-width="1.51"/><path d="M592,1004L681,1060L725,923Z" fill="#5892af" stroke="#5892af" stroke-width="1.51"/><path d="M844,1012L1092,1041L977,999Z" fill="#3382b4" stroke="#3382b4" stroke-width="1.51"/><path d="M1467,631L1530,509L1333,504Z" fill="#4392bd" stroke="#4392bd" stroke-width="1.51"/><path d="M92,409L59,535L195,541Z" fill="#a7dacc" stroke="#a7dacc" stroke-width="1.51"/><path d="M-20,486L92,409L-83,347Z" fill="#b5e2ce" stroke="#b5e2ce" stroke-width="1.51"/><path d="M354,1026L429,923L353,890Z" fill="#76a1b3" stroke="#76a1b3" stroke-width="1.51"/><path d="M354,1026L469,1027L429,923Z" fill="#719aac" stroke="#719aac" stroke-width="1.51"/><path d="M1211,894L1370,915L1242,798Z" fill="#207cb6" stroke="#207cb6" stroke-width="1.51"/><path d="M977,999L1092,1041L1128,881Z" fill="#2c7fb6" stroke="#2c7fb6" stroke-width="1.51"/><path d="M681,1060L1092,1041L844,1012Z" fill="#4083af" stroke="#4083af" stroke-width="1.51"/><path d="M59,535L63,626L195,541Z" fill="#a0d4d0" stroke="#a0d4d0" stroke-width="1.51"/><path d="M1485,148L1518,-24L1389,91Z" fill="#85a6bc" stroke="#85a6bc" stroke-width="1.51"/><path d="M1648,19L1518,-24L1485,148Z" fill="#839fb6" stroke="#839fb6" stroke-width="1.51"/><path d="M1644,249L1477,265L1517,371Z" fill="#6b97aa" stroke="#6b97aa" stroke-width="1.51"/><path d="M-83,347L92,409L79,220Z" fill="#bee6c8" stroke="#bee6c8" stroke-width="1.51"/><path d="M95,-167L38,29L192,-30Z" fill="#ddf2d7" stroke="#ddf2d7" stroke-width="1.51"/><path d="M1092,1041L1213,1026L1128,881Z" fill="#2478b1" stroke="#2478b1" stroke-width="1.51"/><path d="M1342,778L1520,783L1467,631Z" fill="#267fb8" stroke="#267fb8" stroke-width="1.51"/><path d="M175,739L174,868L330,773Z" fill="#89b8c2" stroke="#89b8c2" stroke-width="1.51"/><path d="M90,781L174,868L175,739Z" fill="#8cb9c5" stroke="#8cb9c5" stroke-width="1.51"/><path d="M63,626L90,781L175,739Z" fill="#93c3cc" stroke="#93c3cc" stroke-width="1.51"/><path d="M59,535L-54,662L63,626Z" fill="#9fd3d6" stroke="#9fd3d6" stroke-width="1.51"/><path d="M-76,265L79,220L63,159Z" fill="#cbebca" stroke="#cbebca" stroke-width="1.51"/><path d="M1330,1039L1370,915L1211,894Z" fill="#1771af" stroke="#1771af" stroke-width="1.51"/><path d="M1603,547L1631,384L1530,509Z" fill="#4b8aad" stroke="#4b8aad" stroke-width="1.51"/><path d="M174,868L354,1026L353,890Z" fill="#7ea6b8" stroke="#7ea6b8" stroke-width="1.51"/><path d="M469,1027L174,1061L681,1060Z" fill="#6c92a4" stroke="#6c92a4" stroke-width="1.51"/><path d="M-54,662L90,781L63,626Z" fill="#99c8d1" stroke="#99c8d1" stroke-width="1.51"/><path d="M1530,509L1631,384L1517,371Z" fill="#568fad" stroke="#568fad" stroke-width="1.51"/><path d="M1603,547L1530,509L1597,633Z" fill="#3e85b2" stroke="#3e85b2" stroke-width="1.51"/><path d="M1597,633L1530,509L1467,631Z" fill="#3887b7" stroke="#3887b7" stroke-width="1.51"/><path d="M213,-110L95,-167L192,-30Z" fill="#def2d7" stroke="#def2d7" stroke-width="1.51"/><path d="M571,-145L95,-167L454,-121Z" fill="#d4eed2" stroke="#d4eed2" stroke-width="1.51"/><path d="M836,-170L95,-167L571,-145Z" fill="#cbebd1" stroke="#cbebd1" stroke-width="1.51"/><path d="M1518,-24L1519,-123L1358,-8Z" fill="#8ba9c4" stroke="#8ba9c4" stroke-width="1.51"/><path d="M1334,-122L1609,-143L836,-170Z" fill="#99bdd2" stroke="#99bdd2" stroke-width="1.51"/><path d="M1609,-143L1519,-123L1518,-24Z" fill="#8ca2bf" stroke="#8ca2bf" stroke-width="1.51"/><path d="M1631,384L1644,249L1517,371Z" fill="#6490a7" stroke="#6490a7" stroke-width="1.51"/><path d="M1370,915L1520,783L1342,778Z" fill="#1b77b4" stroke="#1b77b4" stroke-width="1.51"/><path d="M1520,783L1597,633L1467,631Z" fill="#2b7eb4" stroke="#2b7eb4" stroke-width="1.51"/><path d="M1754,539L1774,396L1631,384Z" fill="#4f83a2" stroke="#4f83a2" stroke-width="1.51"/><path d="M-54,114L-76,265L63,159Z" fill="#d1edce" stroke="#d1edce" stroke-width="1.51"/><path d="M-54,114L63,159L38,29Z" fill="#d7efd0" stroke="#d7efd0" stroke-width="1.51"/><path d="M-95,10L-54,114L38,29Z" fill="#dcf2d6" stroke="#dcf2d6" stroke-width="1.51"/><path d="M-43,883L105,889L90,781Z" fill="#8db4c6" stroke="#8db4c6" stroke-width="1.51"/><path d="M-76,265L-83,347L79,220Z" fill="#c6e9c9" stroke="#c6e9c9" stroke-width="1.51"/><path d="M90,781L105,889L174,868Z" fill="#8bb3c4" stroke="#8bb3c4" stroke-width="1.51"/><path d="M174,868L174,1061L354,1026Z" fill="#7fa0b3" stroke="#7fa0b3" stroke-width="1.51"/><path d="M-54,662L59,535L-20,486Z" fill="#a5d7d5" stroke="#a5d7d5" stroke-width="1.51"/><path d="M1370,915L1492,938L1520,783Z" fill="#126dae" stroke="#126dae" stroke-width="1.51"/><path d="M1213,1026L1330,1039L1211,894Z" fill="#1b70ac" stroke="#1b70ac" stroke-width="1.51"/><path d="M1092,1041L1330,1039L1213,1026Z" fill="#1d6ca7" stroke="#1d6ca7" stroke-width="1.51"/><path d="M1590,1062L1330,1039L1092,1041Z" fill="#1562a1" stroke="#1562a1" stroke-width="1.51"/><path d="M1728,109L1665,113L1644,249Z" fill="#7690a4" stroke="#7690a4" stroke-width="1.51"/><path d="M1644,249L1665,113L1485,148Z" fill="#7897aa" stroke="#7897aa" stroke-width="1.51"/><path d="M1665,113L1648,19L1485,148Z" fill="#7e9aae" stroke="#7e9aae" stroke-width="1.51"/><path d="M-156,636L-54,662L-20,486Z" fill="#a5d6d9" stroke="#a5d6d9" stroke-width="1.51"/><path d="M1520,783L1625,737L1597,633Z" fill="#2775ac" stroke="#2775ac" stroke-width="1.51"/><path d="M1754,539L1631,384L1603,547Z" fill="#4983a7" stroke="#4983a7" stroke-width="1.51"/><path d="M1790,223L1728,109L1644,249Z" fill="#728ea1" stroke="#728ea1" stroke-width="1.51"/><path d="M1655,917L1625,737L1520,783Z" fill="#1a68a5" stroke="#1a68a5" stroke-width="1.51"/><path d="M1330,1039L1492,938L1370,915Z" fill="#0f68aa" stroke="#0f68aa" stroke-width="1.51"/><path d="M-225,419L-170,489L-83,347Z" fill="#bbe4d4" stroke="#bbe4d4" stroke-width="1.51"/><path d="M-184,162L-186,290L-76,265Z" fill="#d0edd0" stroke="#d0edd0" stroke-width="1.51"/><path d="M-48,-158L-95,10L38,29Z" fill="#e2f3dc" stroke="#e2f3dc" stroke-width="1.51"/><path d="M1648,19L1609,-143L1518,-24Z" fill="#879db8" stroke="#879db8" stroke-width="1.51"/><path d="M1519,-123L1609,-143L1334,-122Z" fill="#90a9c7" stroke="#90a9c7" stroke-width="1.51"/><path d="M1648,19L1770,-22L1609,-143Z" fill="#8496b1" stroke="#8496b1" stroke-width="1.51"/><path d="M1665,113L1728,109L1648,19Z" fill="#7c92a8" stroke="#7c92a8" stroke-width="1.51"/><path d="M1774,396L1644,249L1631,384Z" fill="#60889f" stroke="#60889f" stroke-width="1.51"/><path d="M105,889L174,1061L174,868Z" fill="#85a7bd" stroke="#85a7bd" stroke-width="1.51"/><path d="M354,1026L174,1061L469,1027Z" fill="#7695a9" stroke="#7695a9" stroke-width="1.51"/><path d="M70,1014L174,1061L105,889Z" fill="#84a1b8" stroke="#84a1b8" stroke-width="1.51"/><path d="M95,-167L-48,-158L38,29Z" fill="#e3f4dd" stroke="#e3f4dd" stroke-width="1.51"/><path d="M-43,883L70,1014L105,889Z" fill="#8aaac3" stroke="#8aaac3" stroke-width="1.51"/><path d="M-83,347L-170,489L-20,486Z" fill="#b5e2d2" stroke="#b5e2d2" stroke-width="1.51"/><path d="M-186,290L-83,347L-76,265Z" fill="#c8eacd" stroke="#c8eacd" stroke-width="1.51"/><path d="M-184,162L-76,265L-54,114Z" fill="#d5efd1" stroke="#d5efd1" stroke-width="1.51"/><path d="M-184,162L-54,114L-95,10Z" fill="#ddf2d6" stroke="#ddf2d6" stroke-width="1.51"/><path d="M1754,539L1603,547L1597,633Z" fill="#3b7eab" stroke="#3b7eab" stroke-width="1.51"/><path d="M1783,613L1754,539L1597,633Z" fill="#3679a8" stroke="#3679a8" stroke-width="1.51"/><path d="M1330,1039L1514,994L1492,938Z" fill="#0961a4" stroke="#0961a4" stroke-width="1.51"/><path d="M1492,938L1655,917L1520,783Z" fill="#1365a5" stroke="#1365a5" stroke-width="1.51"/><path d="M1625,737L1783,613L1597,633Z" fill="#2d74a9" stroke="#2d74a9" stroke-width="1.51"/><path d="M-175,-41L-184,162L-95,10Z" fill="#e2f4db" stroke="#e2f4db" stroke-width="1.51"/><path d="M-170,489L-156,636L-20,486Z" fill="#addad8" stroke="#addad8" stroke-width="1.51"/><path d="M-86,802L90,781L-54,662Z" fill="#96c1cf" stroke="#96c1cf" stroke-width="1.51"/><path d="M-199,757L-86,802L-54,662Z" fill="#9bc4d3" stroke="#9bc4d3" stroke-width="1.51"/><path d="M1774,396L1790,223L1644,249Z" fill="#688a9c" stroke="#688a9c" stroke-width="1.51"/><path d="M1728,109L1770,-22L1648,19Z" fill="#7e92aa" stroke="#7e92aa" stroke-width="1.51"/><path d="M-86,802L-43,883L90,781Z" fill="#91b8cb" stroke="#91b8cb" stroke-width="1.51"/><path d="M-184,162L-225,419L-186,290Z" fill="#cdecd0" stroke="#cdecd0" stroke-width="1.51"/><path d="M-186,290L-225,419L-83,347Z" fill="#c4e8d1" stroke="#c4e8d1" stroke-width="1.51"/><path d="M-170,489L-225,419L-156,636Z" fill="#b3ddda" stroke="#b3ddda" stroke-width="1.51"/><path d="M-184,162L-202,-100L-225,419Z" fill="#dbf1d7" stroke="#dbf1d7" stroke-width="1.51"/><path d="M-48,-158L-175,-41L-95,10Z" fill="#e7f6e0" stroke="#e7f6e0" stroke-width="1.51"/><path d="M1751,747L1783,613L1625,737Z" fill="#286da4" stroke="#286da4" stroke-width="1.51"/><path d="M1754,539L1783,613L1774,396Z" fill="#447ea5" stroke="#447ea5" stroke-width="1.51"/><path d="M1774,396L1783,613L1790,223Z" fill="#5584a1" stroke="#5584a1" stroke-width="1.51"/><path d="M1790,223L1770,-22L1728,109Z" fill="#7b91a5" stroke="#7b91a5" stroke-width="1.51"/><path d="M1514,994L1655,917L1492,938Z" fill="#0a5da0" stroke="#0a5da0" stroke-width="1.51"/><path d="M1754,884L1751,747L1625,737Z" fill="#1c639e" stroke="#1c639e" stroke-width="1.51"/><path d="M-175,-41L-202,-100L-184,162Z" fill="#e6f6df" stroke="#e6f6df" stroke-width="1.51"/><path d="M-48,-158L-202,-100L-175,-41Z" fill="#ebf8e4" stroke="#ebf8e4" stroke-width="1.51"/><path d="M-225,419L-199,757L-156,636Z" fill="#aad7df" stroke="#aad7df" stroke-width="1.51"/><path d="M-156,636L-199,757L-54,662Z" fill="#a1ccd8" stroke="#a1ccd8" stroke-width="1.51"/><path d="M-86,802L-191,920L-43,883Z" fill="#93b4cc" stroke="#93b4cc" stroke-width="1.51"/><path d="M-43,883L-89,1047L70,1014Z" fill="#89a4bf" stroke="#89a4bf" stroke-width="1.51"/><path d="M1514,994L1590,1062L1655,917Z" fill="#0a5598" stroke="#0a5598" stroke-width="1.51"/><path d="M1655,917L1754,884L1625,737Z" fill="#175e9c" stroke="#175e9c" stroke-width="1.51"/><path d="M1330,1039L1590,1062L1514,994Z" fill="#09599c" stroke="#09599c" stroke-width="1.51"/><path d="M681,1060L1590,1062L1092,1041Z" fill="#2671a8" stroke="#2671a8" stroke-width="1.51"/><path d="M174,1061L1590,1062L681,1060Z" fill="#4683ab" stroke="#4683ab" stroke-width="1.51"/><path d="M1770,-22L1785,-133L1609,-143Z" fill="#8696b2" stroke="#8696b2" stroke-width="1.51"/><path d="M1790,223L1785,-133L1770,-22Z" fill="#7f92ab" stroke="#7f92ab" stroke-width="1.51"/><path d="M1774,1060L1754,884L1655,917Z" fill="#0a5294" stroke="#0a5294" stroke-width="1.51"/><path d="M1751,747L1754,884L1783,613Z" fill="#2268a1" stroke="#2268a1" stroke-width="1.51"/><path d="M-191,920L-89,1047L-43,883Z" fill="#8faac6" stroke="#8faac6" stroke-width="1.51"/><path d="M70,1014L-89,1047L174,1061Z" fill="#839bb3" stroke="#839bb3" stroke-width="1.51"/><path d="M-225,419L-191,920L-199,757Z" fill="#a3cbda" stroke="#a3cbda" stroke-width="1.51"/><path d="M-199,757L-191,920L-86,802Z" fill="#98bad1" stroke="#98bad1" stroke-width="1.51"/><path d="M-191,920L-184,1040L-89,1047Z" fill="#8ea3c1" stroke="#8ea3c1" stroke-width="1.51"/><path d="M-225,419L-184,1040L-191,920Z" fill="#9bbfd4" stroke="#9bbfd4" stroke-width="1.51"/><path d="M1754,884L1774,1060L1783,613Z" fill="#165c9b" stroke="#165c9b" stroke-width="1.51"/><path d="M1590,1062L1774,1060L1655,917Z" fill="#094c8d" stroke="#094c8d" stroke-width="1.51"/></svg>